<svg height="496pt" viewBox="0 0 496.18099 496" width="496pt" xmlns="http://www.w3.org/2000/svg"><path d="m319.457031 155.617188c0 85.894531-69.628906 155.523437-155.523437 155.523437-85.894532 0-155.527344-69.628906-155.527344-155.523437 0-85.894532 69.632812-155.5273442 155.527344-155.5273442 85.894531 0 155.523437 69.6328122 155.523437 155.5273442zm0 0" fill="#f98c96"/><path d="m126.101562 155.617188c.011719-63.15625 38.21875-120.03125 96.679688-143.925782-9.496094-3.882812-19.351562-6.808594-29.425781-8.734375-84.308594 16.210938-139.515625 97.699219-123.304688 182.011719 12.007813 62.453125 60.851563 111.296875 123.304688 123.304688 10.074219-1.925782 19.933593-4.851563 29.425781-8.738282-58.460938-23.886718-96.667969-80.765625-96.679688-143.917968zm0 0" fill="#f9cad0"/><path d="m210.167969 155.617188c-.019531-45.523438 19.960937-88.757813 54.644531-118.238282-12.554688-10.742187-26.746094-19.414062-42.03125-25.683594-79.488281 32.46875-117.601562 123.222657-85.136719 202.710938 15.792969 38.660156 46.476563 69.339844 85.136719 85.132812 15.289062-6.273437 29.476562-14.945312 42.03125-25.6875-34.683594-29.480468-54.664062-72.714843-54.644531-118.234374zm0 0" fill="#f7b2bb"/><path d="m496 332.160156c0 85.894532-69.632812 155.523438-155.527344 155.523438-85.894531 0-155.523437-69.628906-155.523437-155.523438 0-85.894531 69.628906-155.527344 155.523437-155.527344 85.894532 0 155.527344 69.632813 155.527344 155.527344zm0 0" fill="#fff69a"/><path d="m340.472656 369.988281c-63.152344-.011719-120.027344-38.214843-143.921875-96.675781-3.882812 9.492188-6.808593 19.347656-8.734375 29.421875 16.210938 84.3125 97.699219 139.519531 182.011719 123.304687 62.453125-12.007812 111.296875-60.847656 123.304687-123.304687-1.925781-10.074219-4.851562-19.929687-8.738281-29.421875-23.890625 58.460938-80.765625 96.664062-143.921875 96.675781zm0 0" fill="#f9bd55"/><path d="m340.472656 285.921875c-45.519531.019531-88.753906-19.960937-118.234375-54.644531-10.742187 12.554687-19.414062 26.746094-25.6875 42.03125 32.46875 79.488281 123.226563 117.605468 202.710938 85.136718 38.664062-15.792968 69.34375-46.472656 85.136719-85.136718-6.273438-15.285156-14.945313-29.476563-25.6875-42.03125-29.480469 34.683594-72.714844 54.664062-118.238282 54.644531zm0 0" fill="#ffd782"/><path d="m353.078125 218.667969c-4.644531-.003907-8.40625-3.773438-8.398437-8.414063 0-1.765625.558593-3.488281 1.59375-4.917968l109.285156-151.324219c2.722656-3.761719 7.976562-4.605469 11.738281-1.886719 3.765625 2.71875 4.609375 7.976562 1.890625 11.738281l-109.289062 151.320313c-1.582032 2.191406-4.121094 3.488281-6.820313 3.484375zm0 0" fill="#aabece"/><path d="m159.730469 496.089844h-151.324219c-4.644531 0-8.40625-3.761719-8.40625-8.40625 0-4.644532 3.761719-8.40625 8.40625-8.40625h151.324219c4.640625-.003906 8.402343-3.765625 8.40625-8.40625v-8.410156c-.003907-4.640626-3.765625-8.402344-8.40625-8.40625h-50.441407c-13.929687 0-25.222656-11.289063-25.222656-25.21875 0-13.929688 11.292969-25.222657 25.222656-25.222657h117.695313c4.640625 0 8.40625 3.765625 8.40625 8.410157 0 4.640624-3.765625 8.40625-8.40625 8.40625h-117.695313c-4.644531 0-8.40625 3.761718-8.40625 8.40625 0 4.644531 3.761719 8.40625 8.40625 8.40625h50.441407c13.921875.015624 25.203125 11.296874 25.21875 25.222656v8.40625c-.015625 13.921875-11.296875 25.203125-25.21875 25.21875zm0 0" fill="#f9bd55"/><path d="m496 50.53125c0 13.929688-11.289062 25.222656-25.21875 25.222656s-25.222656-11.292968-25.222656-25.222656 11.292968-25.222656 25.222656-25.222656 25.21875 11.292968 25.21875 25.222656zm0 0" fill="#f98c96"/><path d="m33.636719 369.988281c-4.644531.003907-8.410157-3.753906-8.414063-8.398437-.003906-2.476563 1.085938-4.828125 2.976563-6.425782l109.289062-92.476562c3.515625-3.03125 8.828125-2.636719 11.859375.882812 3.027344 3.515626 2.636719 8.824219-.882812 11.855469-.039063.035157-.082032.070313-.121094.105469l-109.289062 92.472656c-1.515626 1.28125-3.433594 1.984375-5.417969 1.984375zm0 0" fill="#aabece"/><path d="m58.847656 361.582031c0 13.929688-11.292968 25.222657-25.222656 25.222657-13.925781 0-25.21875-11.292969-25.21875-25.222657 0-13.929687 11.292969-25.21875 25.21875-25.21875 13.929688 0 25.222656 11.289063 25.222656 25.21875zm0 0" fill="#f98c96"/></svg>