<svg height="512" viewBox="0 0 58 58" width="512" xmlns="http://www.w3.org/2000/svg"><g id="Page-1" fill="none" fill-rule="evenodd"><g id="001---Mask" fill-rule="nonzero"><path id="Shape" d="m29 26v16.96c-.9441478-1.3401087-2.1868403-2.442442-3.63-3.22l.02-.03c-.2932672-2.4813492-1.0894907-4.8768251-2.34-7.04-.1043317.9933819-.666534 1.8810698-1.52 2.4-.3805368-2.2173273-1.7345824-4.1474845-3.69-5.26-.9248712 1.2677867-2.4110662 2.0034159-3.98 1.97.1519207-2.145269-.925314-4.1912398-2.78-5.28-.7765036 1.5686684-2.22794524 2.6959301-3.94 3.06-.27719339-1.0762805-.70830607-2.1069093-1.28-3.06-1.16.75-2.63.87-3.86 1.5-.86200047-2.2101665-.83692172-4.6678837.07-6.86-.68491761-.1302172-1.38914367-.120011-2.07.03.36831488-1.7170867 1.38121733-3.2274924 2.83-4.22 1.44117303-.9667426 3.20681172-1.3227471 4.91-.99.14262367-.9646385-.08610575-1.9474602-.64-2.75 2.33887876-.3119861 4.7109263-.2782923 7.04.1 2.3696212.4069059 4.44581 1.8226551 5.69 3.88.1104544-1.2266118-.0013367-2.4630892-.33-3.65.8349188.2682969 1.6393352.6235808 2.4 1.06 1.6206807.908288 3.0341084 2.1446115 4.15 3.63 1.7704961 2.2184529 2.8020704 4.9355148 2.95 7.77z" fill="#894b9d"/><path id="Shape" d="m56.26 33.59c-1.882849 2.0381278-4.3920884 3.3895274-7.13 3.84-2.8080055.3633165-5.6391633.5170748-8.47.46-.71.02-1.42.06-2.13.13-2.0624586.1699991-4.0692921.7550421-5.9 1.72-1.4474932.7713413-2.6915076 1.8748472-3.63 3.22-.9441478-1.3401087-2.1868403-2.442442-3.63-3.22-1.8307079-.9649579-3.8375414-1.5500009-5.9-1.72-3.53-.35-7.1.06-10.6-.59-2.7379116-.4504726-5.24715098-1.8018722-7.13-3.84-.27879541-.3067551-.71794043-.409707-1.10402321-.2588241s-.63905395.524317-.63597679.9388241c.13 8.88 2.86 32.03 29 20.64 26.14 11.39 28.87-11.76 29-20.64.0030772-.4145071-.249894-.7879412-.6359768-.9388241s-.8252278-.047931-1.1040232.2588241zm-31.27 16.83c-2.6.94-9.73 2.71-15.31-3.6-.18960779-.2069471-.28351693-.4840512-.25879187-.7636347.02472507-.2795834.16580799-.5359059.38879187-.7063653 2.58-1.92 10.68-6.77 15.74 3.67.128759.2577226.1412092.5581939.0342127.8256851s-.3232337.4764875-.5942127.5743149zm23.33-3.6c-5.58 6.31-12.71 4.54-15.31 3.6-.1003254-.0356802-.1947143-.0862457-.28-.15-.3783691-.2972819-.4953942-.8197151-.28-1.25 2.41-4.98 5.52-6.48 8.39-6.48 2.6784704.1687155 5.2421143 1.1488297 7.35 2.81.2229839.1704594.3640668.4267819.3887919.7063653.024725.2795835-.0691841.5566876-.2587919.7636347z" fill="#24ae5f"/><g fill="#f0c419"><path id="Shape" d="m51 43c-.474884.0016304-.8854192-.3309514-.9823712-.795836-.096952-.4648847.1464223-.9338397.5823712-1.122164 1.0012235-.4321956 1.9159642-1.0420228 2.7-1.8.3974749-.3813409 1.0284893-.3694497 1.4113148.0265956.3828254.3960453.3732953 1.0270998-.0213148 1.4114044-.9578424.9269421-2.0759602 1.672354-3.3 2.2-.1232416.0528005-.255924.0800174-.39.08z"/><circle id="Oval" cx="52" cy="45" r="1"/><circle id="Oval" cx="51" cy="49" r="1"/><circle id="Oval" cx="48" cy="52" r="1"/></g><path id="Shape" d="m25 30c-.3513418.0002845-.677059-.1838331-.858-.485-3.0409308-5.4141945-8.8348499-8.6940257-15.042-8.515-.54952333.0552285-1.03977153-.3454767-1.095-.895s.34547667-1.0397715.895-1.095c.435-.042 10.7-.942 16.957 9.48.1829746.3086039.1866079.691579.0095212 1.0035988-.1770867.3120197-.5077528.5052634-.8665212.5064012z" fill="#3d324c"/><path id="Shape" d="m55.93 21.14c.9069217 2.1921163.9320005 4.6498335.07 6.86-1.23-.63-2.7-.75-3.86-1.5-.5716939.9530907-1.0028066 1.9837195-1.28 3.06-1.7120548-.3640699-3.1634964-1.4913316-3.94-3.06-1.854686 1.0887602-2.9319207 3.134731-2.78 5.28-1.5689338.0334159-3.0551288-.7022133-3.98-1.97-1.9554176 1.1125155-3.3094632 3.0426727-3.69 5.26-.853466-.5189302-1.4156683-1.4066181-1.52-2.4-1.2505093 2.1631749-2.0467328 4.5586508-2.34 7.04l.02.03c-1.4474932.7713413-2.6915076 1.8748472-3.63 3.22v-16.96c.1479296-2.8344852 1.1795039-5.5515471 2.95-7.77 1.1271297-1.4952852 2.5543007-2.7385248 4.19-3.65.7473706-.4297511 1.5385299-.7783976 2.36-1.04-.3286633 1.1869108-.4404544 2.4233882-.33 3.65 1.24419-2.0573449 3.3203788-3.4730941 5.69-3.88 2.3290737-.3782923 4.7011212-.4119861 7.04-.1-.5538942.8025398-.7826237 1.7853615-.64 2.75 1.7031883-.3327471 3.468827.0232574 4.91.99 1.4487827.9925076 2.4616851 2.5029133 2.83 4.22-.6808563-.150011-1.3850824-.1602172-2.07-.03z" fill="#df4d60"/><path id="Shape" d="m33 30c-.3601643-.0004285-.6922741-.1945017-.869448-.5080746s-.172037-.698196.013448-1.0069254c6.256-10.422 16.518-9.524 16.956-9.48.550904.0552285.9527285.546596.8975 1.0975s-.546596.9527285-1.0975.8975c-.412-.037-9.469-.772-15.044 8.52-.1818043.298638-.5063758.4806408-.856.48z" fill="#802d40"/><path id="Shape" d="m36.14 14.58c-1.6356993.9114752-3.0628703 2.1547148-4.19 3.65-1.7704961 2.2184529-2.8020704 4.9355148-2.95 7.77-.1479296-2.8344852-1.1795039-5.5515471-2.95-7.77-1.1158916-1.4853885-2.5293193-2.721712-4.15-3.63-.97-2.66-2.28-4.76-1.75-7.6 1.1690702.46721928 2.3865925.80262488 3.63 1-.56-1.38-1.01-3.9.16-5 .7330129.56374083 1.6096447.91023562 2.53 1 .34-1.31 1.07-3.37 2.55-3.99 1.48.63 2.19 2.69 2.54 3.99.9203553-.08976438 1.7969871-.43625917 2.53-1 1.17 1.1.72 3.62.16 5 1.2434075-.19737512 2.4609298-.53278072 3.63-1 .53 2.83-.77 4.92-1.74 7.58z" fill="#f0c419"/><path id="Shape" d="m29 8c-.5522847 0-1-.44771525-1-1v-1c0-.55228475.4477153-1 1-1s1 .44771525 1 1v1c0 .55228475-.4477153 1-1 1z" fill="#f29c1f"/><path id="Shape" d="m29 15c-.5522847 0-1-.4477153-1-1v-3c0-.5522847.4477153-1 1-1s1 .4477153 1 1v3c0 .5522847-.4477153 1-1 1z" fill="#f29c1f"/><path id="Shape" d="m7 43c-.13758275.0007585-.27381317-.0271687-.4-.082-1.22403976-.527646-2.34215764-1.2730579-3.3-2.2-.39681658-.3865993-.4050993-1.0216834-.01849998-1.4185s1.02168338-.4050993 1.41849998-.0185c.78403577.7579772 1.69877655 1.3678044 2.7 1.8.43727561.1875724.68183218.6572761.58474062 1.1230728-.09709155.4657968-.50894045.7986781-.98474062.7959272z" fill="#f0c419"/><circle id="Oval" cx="6" cy="45" fill="#f0c419" r="1"/><circle id="Oval" cx="7" cy="49" fill="#f0c419" r="1"/><circle id="Oval" cx="10" cy="52" fill="#f0c419" r="1"/></g></g></svg>