<svg height="512pt" viewBox="0 -14 512.00063 512" width="512pt" xmlns="http://www.w3.org/2000/svg"><path d="m475.09375 75.054688c-49.210938-49.207032-128.992188-49.207032-178.203125 0l-40.890625 40.890624-40.890625-40.890624c-49.210937-49.207032-128.992187-49.207032-178.203125 0-49.207031 49.210937-49.207031 128.992187 0 178.203124l197.261719 197.261719c12.058593 12.054688 31.605469 12.054688 43.660156 0l197.261719-197.261719c49.210937-49.210937 49.210937-128.992187.003906-178.203124zm0 0" fill="#eb5777"/><path d="m475.082031 253.269531-197.238281 197.238281c-12.066406 12.066407-31.621094 12.066407-43.6875 0l-12.660156-12.660156c1.246094-.929687 2.460937-1.949218 3.589844-3.078125l197.269531-197.265625c49.195312-49.226562 49.195312-129 0-178.222656-8.367188-8.363281-17.605469-15.316406-27.441407-20.828125 29.21875 2.0625 57.816407 14.242187 80.167969 36.59375 49.226563 49.226563 49.226563 128.996094 0 178.222656zm0 0" fill="#ce3f63"/><path d="m47.84375 64.097656h219.527344v112.59375h-219.527344zm0 0" fill="#ba6f3c"/><path d="m284.367188 168.171875c0 16.027344-12.992188 29.019531-29.023438 29.019531-16.027344 0-29.019531-12.992187-29.019531-29.019531s12.992187-29.023437 29.019531-29.023437c16.03125 0 29.023438 12.996093 29.023438 29.023437zm0 0" fill="#e39f6e"/><path d="m88.894531 168.171875c0 16.027344-12.996093 29.019531-29.023437 29.019531s-29.019532-12.992187-29.019532-29.019531 12.992188-29.023437 29.019532-29.023437 29.023437 12.996093 29.023437 29.023437zm0 0" fill="#e39f6e"/><path d="m157.609375 265.375c-39.453125 0-72.726563-29.378906-77.617187-68.527344l-7.640626-61.175781c-3.609374-28.890625 18.917969-54.40625 48.03125-54.40625h74.449219c29.113281 0 51.640625 25.515625 48.03125 54.40625l-7.640625 61.175781c-4.890625 39.148438-38.164062 68.527344-77.613281 68.527344zm0 0" fill="#f8c298"/><path d="m113.609375 174.234375c-4.171875 0-7.605469-3.320313-7.71875-7.515625l-.128906-4.597656c-.117188-4.269532 3.246093-7.820313 7.511719-7.9375 4.285156-.105469 7.820312 3.246094 7.9375 7.511718l.125 4.601563c.117187 4.265625-3.246094 7.820313-7.511719 7.933594-.074219.003906-.144531.003906-.214844.003906zm0 0" fill="#ba6f3c"/><path d="m198.695312 174.234375c-4.167968 0-7.605468-3.320313-7.71875-7.515625l-.125-4.597656c-.117187-4.269532 3.246094-7.820313 7.511719-7.9375 4.28125-.105469 7.816407 3.246094 7.933594 7.511718l.125 4.601563c.117187 4.265625-3.242187 7.820313-7.511719 7.933594-.070312.003906-.140625.003906-.214844.003906zm0 0" fill="#ba6f3c"/><path d="m156.09375 215.003906c-12.667969 0-24.675781-6.136718-32.121094-16.417968-2.503906-3.453126-1.730468-8.285157 1.726563-10.789063 3.457031-2.5 8.285156-1.730469 10.789062 1.726563 4.546875 6.277343 11.875 10.027343 19.605469 10.027343s15.058594-3.746093 19.605469-10.027343c2.5-3.457032 7.332031-4.230469 10.789062-1.726563s4.226563 7.332031 1.726563 10.789063c-7.445313 10.28125-19.453125 16.417968-32.121094 16.417968zm0 0" fill="#e39f6e"/><path d="m207.820312 100.832031h-160.199218c-5.800782 0-10.503906-4.703125-10.503906-10.5v-11.125c0-43.742187 35.464843-79.207031 79.207031-79.207031h160.203125c5.800781 0 10.5 4.703125 10.5 10.503906v11.121094c0 43.746094-35.460938 79.207031-79.207032 79.207031zm0 0" fill="#c2c6cc"/><path d="m481.152344 452.960938c0 17.660156-14.316406 31.980468-31.980469 31.980468-17.660156 0-31.976563-14.320312-31.976563-31.980468 0-17.660157 14.316407-31.980469 31.976563-31.980469 17.664063 0 31.980469 14.320312 31.980469 31.980469zm0 0" fill="#ba6f3c"/><path d="m274.347656 452.960938c0 17.660156-14.320312 31.980468-31.980468 31.980468-17.660157 0-31.980469-14.320312-31.980469-31.980468 0-17.660157 14.320312-31.980469 31.980469-31.980469 17.660156 0 31.980468 14.320312 31.980468 31.980469zm0 0" fill="#ba6f3c"/><path d="m326.726562 469.285156h38.085938c49.722656 0 91.449219-37.484375 96.761719-86.921875l3.839843-35.734375c7.644532-71.136718-48.097656-133.191406-119.644531-133.191406s-127.289062 62.054688-119.644531 133.191406l3.839844 35.734375c5.3125 49.4375 47.039062 86.921875 96.761718 86.921875zm0 0" fill="#d88852"/><path d="m452.53125 328.300781c-3.269531-.429687-6.320312 1.246094-7.804688 3.980469l-4.0625 30.59375c-.023437.160156-.058593.3125-.089843.46875h15.09375l3.503906-26.367188c.5625-4.230468-2.410156-8.113281-6.640625-8.675781zm0 0" fill="#ba6f3c"/><path d="m248.347656 328.449219c-3.617187-.152344-6.953125 2.265625-7.828125 5.921875-.992187 4.148437 1.566407 8.316406 5.71875 9.308594 4.597657 1.101562 10.984375 2.335937 18.519531 3.058593v-15.332031c-6.757812-.773438-12.414062-1.957031-16.410156-2.957031zm0 0" fill="#ba6f3c"/><path d="m470.523438 386.359375c0 15.773437-12.789063 28.5625-28.5625 28.5625-15.777344 0-28.5625-12.789063-28.5625-28.5625s12.785156-28.5625 28.5625-28.5625c15.773437 0 28.5625 12.789063 28.5625 28.5625zm0 0" fill="#f8c298"/><path d="m278.144531 386.359375c0 15.773437-12.789062 28.5625-28.566406 28.5625-15.773437 0-28.5625-12.789063-28.5625-28.5625s12.789063-28.5625 28.5625-28.5625c15.777344 0 28.566406 12.789063 28.566406 28.5625zm0 0" fill="#f8c298"/><path d="m255.738281 305.347656 13.644531 109.238282c4.8125 38.523437 37.5625 67.4375 76.386719 67.4375 38.828125 0 71.574219-28.914063 76.386719-67.4375l13.644531-109.238282zm0 0" fill="#ffd6c0"/><path d="m303.957031 392.449219c-4.167969 0-7.601562-3.320313-7.71875-7.515625l-.125-4.527344c-.117187-4.265625 3.246094-7.816406 7.511719-7.933594 4.246094-.128906 7.816406 3.242188 7.9375 7.507813l.125 4.53125c.117188 4.265625-3.246094 7.816406-7.511719 7.933593-.074219.003907-.144531.003907-.21875.003907zm0 0" fill="#ba6f3c"/><path d="m387.699219 392.449219c-4.167969 0-7.605469-3.320313-7.71875-7.515625l-.125-4.527344c-.117188-4.265625 3.246093-7.816406 7.511719-7.933594.074218-.003906.144531-.003906.214843-.003906 4.167969 0 7.605469 3.320312 7.71875 7.515625l.125 4.527344c.117188 4.265625-3.246093 7.816406-7.511719 7.933593-.074218.003907-.144531.003907-.214843.003907zm0 0" fill="#ba6f3c"/><path d="m345.769531 432.574219c-12.503906 0-24.359375-6.058594-31.710937-16.207031-2.5-3.457032-1.730469-8.289063 1.726562-10.789063 3.457032-2.503906 8.289063-1.730469 10.789063 1.722656 4.453125 6.152344 11.628906 9.820313 19.195312 9.820313 7.566407 0 14.746094-3.671875 19.195313-9.820313 2.503906-3.457031 7.335937-4.226562 10.789062-1.722656 3.457032 2.5 4.230469 7.332031 1.726563 10.789063-7.347657 10.148437-19.203125 16.207031-31.710938 16.207031zm0 0" fill="#ed7a98"/><path d="m241.878906 295.148438v31.429687s58.90625 20.964844 101.335938-17.886719c0 0 16.292968 51.796875 86.390625 62.472656 5.355469.816407 10.34375-2.917968 11.058593-8.289062l8.996094-67.726562zm0 0" fill="#d88852"/><path d="m403.144531 413.59375c0 4.261719-3.457031 7.71875-7.722656 7.71875-4.261719 0-7.71875-3.457031-7.71875-7.71875 0-4.265625 3.457031-7.71875 7.71875-7.71875 4.265625 0 7.722656 3.453125 7.722656 7.71875zm0 0" fill="#ed7a98"/><path d="m303.835938 413.59375c0 4.261719-3.453126 7.71875-7.71875 7.71875-4.261719 0-7.71875-3.457031-7.71875-7.71875 0-4.265625 3.457031-7.71875 7.71875-7.71875 4.265624 0 7.71875 3.453125 7.71875 7.71875zm0 0" fill="#ed7a98"/><path d="m190.976562 302.117188c-12.742187-12.742188-33.398437-12.742188-46.140624 0l-10.589844 10.585937-10.585938-10.585937c-12.742187-12.742188-33.398437-12.742188-46.140625 0-12.738281 12.738281-12.738281 33.398437 0 46.140624l51.078125 51.074219c3.121094 3.121094 8.179688 3.121094 11.300782 0l51.078124-51.074219c12.738282-12.742187 12.738282-33.402343 0-46.140624zm0 0" fill="#74e2cd"/><path d="m190.972656 348.257812-51.070312 51.070313c-3.125 3.125-8.1875 3.125-11.3125 0l-3.277344-3.277344c.324219-.242187.636719-.503906.929688-.796875l51.078124-51.078125c12.738282-12.742187 12.738282-33.398437 0-46.144531-2.167968-2.164062-4.558593-3.964844-7.105468-5.390625 7.566406.535156 14.96875 3.6875 20.757812 9.476563 12.742188 12.742187 12.742188 33.398437 0 46.140624zm0 0" fill="#3db4a0"/><path d="m35 369.925781c-.027344 0-.050781 0-.078125-.003906-4.265625-.039063-7.691406-3.53125-7.648437-7.800781l.03125-3.160156c.039062-4.242188 3.492187-7.652344 7.722656-7.652344.027344 0 .050781 0 .078125.003906 4.265625.039062 7.691406 3.53125 7.648437 7.800781l-.03125 3.160157c-.039062 4.242187-3.492187 7.652343-7.722656 7.652343zm0 0" fill="#eb5777"/><path d="m34.734375 400.28125c-.027344 0-.050781 0-.078125 0-4.265625-.039062-7.691406-3.535156-7.652344-7.800781l.03125-3.160157c.042969-4.269531 3.546875-7.660156 7.800782-7.652343 4.269531.042969 7.695312 3.535156 7.652343 7.800781l-.03125 3.160156c-.042969 4.242188-3.492187 7.652344-7.722656 7.652344zm0 0" fill="#eb5777"/><path d="m51.640625 383.671875c-.023437 0-.050781 0-.078125 0l-3.160156-.03125c-4.265625-.042969-7.691406-3.535156-7.648438-7.800781.042969-4.242188 3.492188-7.652344 7.722656-7.652344h.078126l3.160156.03125c4.269531.042969 7.695312 3.535156 7.652344 7.804688-.042969 4.238281-3.492188 7.648437-7.726563 7.648437zm0 0" fill="#eb5777"/><path d="m21.28125 383.40625c-.023438 0-.050781 0-.078125 0l-3.160156-.03125c-4.265625-.042969-7.691407-3.535156-7.648438-7.800781.042969-4.269531 3.578125-7.703125 7.800781-7.652344l3.164063.03125c4.265625.042969 7.691406 3.535156 7.648437 7.804687-.042968 4.238282-3.492187 7.648438-7.726562 7.648438zm0 0" fill="#eb5777"/><g fill="#74e2cd"><path d="m77.96875 413.148438c-.027344 0-.050781 0-.078125 0-4.265625-.039063-7.691406-3.53125-7.648437-7.800782l.03125-3.160156c.042968-4.265625 3.550781-7.707031 7.800781-7.648438 4.265625.042969 7.691406 3.535157 7.648437 7.800782l-.03125 3.160156c-.039062 4.242188-3.492187 7.648438-7.722656 7.648438zm0 0"/><path d="m77.703125 443.507812c-.027344 0-.054687 0-.078125 0-4.269531-.042968-7.691406-3.535156-7.648438-7.800781l.027344-3.164062c.042969-4.265625 3.574219-7.6875 7.804688-7.648438 4.265625.042969 7.691406 3.535157 7.648437 7.804688l-.03125 3.160156c-.042969 4.238281-3.492187 7.648437-7.722656 7.648437zm0 0"/><path d="m94.609375 426.898438c-.023437 0-.050781 0-.078125 0l-3.160156-.03125c-4.265625-.042969-7.691406-3.535157-7.648438-7.800782.042969-4.242187 3.492188-7.652344 7.722656-7.652344h.078126l3.164062.03125c4.265625.042969 7.691406 3.535157 7.648438 7.804688-.042969 4.238281-3.496094 7.648438-7.726563 7.648438zm0 0"/><path d="m64.25 426.628906c-.023438 0-.050781 0-.078125 0l-3.160156-.03125c-4.265625-.039062-7.691407-3.535156-7.648438-7.800781.042969-4.238281 3.492188-7.648437 7.722657-7.648437h.078124l3.164063.03125c4.265625.042968 7.691406 3.535156 7.648437 7.800781-.042968 4.242187-3.492187 7.648437-7.726562 7.648437zm0 0"/><path d="m477.273438 25c-.027344 0-.054688 0-.078126 0-4.269531-.042969-7.691406-3.535156-7.652343-7.800781l.03125-3.160157c.042969-4.242187 3.492187-7.652343 7.722656-7.652343h.078125c4.269531.042969 7.691406 3.535156 7.652344 7.804687l-.03125 3.160156c-.042969 4.238282-3.492188 7.648438-7.722656 7.648438zm0 0"/><path d="m477.003906 55.359375c-.027344 0-.050781 0-.078125 0-4.265625-.042969-7.691406-3.535156-7.648437-7.804687l.03125-3.160157c.042968-4.265625 3.578125-7.714843 7.800781-7.648437 4.265625.042968 7.691406 3.535156 7.648437 7.800781l-.027343 3.164063c-.042969 4.238281-3.496094 7.648437-7.726563 7.648437zm0 0"/><path d="m493.914062 38.75c-.027343 0-.054687 0-.078124 0l-3.164063-.03125c-4.265625-.042969-7.6875-3.535156-7.648437-7.804688.042968-4.238281 3.492187-7.648437 7.722656-7.648437h.078125l3.164062.03125c4.265625.042969 7.691407 3.535156 7.648438 7.800781-.039063 4.242188-3.492188 7.652344-7.722657 7.652344zm0 0"/><path d="m463.554688 38.480469c-.027344 0-.054688 0-.078126 0l-3.160156-.03125c-4.269531-.039063-7.691406-3.535157-7.652344-7.800781.042969-4.265626 3.519532-7.722657 7.804688-7.648438l3.160156.03125c4.265625.042969 7.691406 3.535156 7.648438 7.800781-.042969 4.242188-3.492188 7.648438-7.722656 7.648438zm0 0"/></g><path d="m373.933594 113.449219h-19.140625c-4.269531 0-7.726563-3.457031-7.726563-7.726563 0-4.265625 3.457032-7.722656 7.726563-7.722656h19.140625c4.265625 0 7.726562 3.457031 7.726562 7.722656 0 4.269532-3.460937 7.726563-7.726562 7.726563zm0 0" fill="#ebeef2"/><path d="m420.613281 143.023438h-65.820312c-4.269531 0-7.726563-3.460938-7.726563-7.726563s3.457032-7.726563 7.726563-7.726563h65.820312c4.269531 0 7.726563 3.460938 7.726563 7.726563s-3.457032 7.726563-7.726563 7.726563zm0 0" fill="#ebeef2"/><path d="m420.613281 165.460938h-65.820312c-4.269531 0-7.726563-3.457032-7.726563-7.726563 0-4.265625 3.457032-7.722656 7.726563-7.722656h65.820312c4.269531 0 7.726563 3.457031 7.726563 7.722656 0 4.269531-3.457032 7.726563-7.726563 7.726563zm0 0" fill="#ebeef2"/><path d="m199.179688 71.78125c-6.695313 11.800781-15.90625 21.675781-26.78125 29.050781h-38.335938c22.136719-3.195312 41.617188-16.425781 52.746094-36.066406 1.941406-3.414063 6.273437-4.617187 9.695312-2.683594 3.414063 1.941407 4.609375 6.273438 2.675782 9.699219zm0 0" fill="#93a3af"/><path d="m227.511719 71.78125c-6.691407 11.800781-15.90625 21.675781-26.777344 29.050781h-38.335937c22.132812-3.195312 41.613281-16.425781 52.742187-36.066406 1.945313-3.414063 6.277344-4.617187 9.699219-2.683594 3.410156 1.941407 4.605468 6.273438 2.671875 9.699219zm0 0" fill="#93a3af"/></svg>