<svg height="512" viewBox="0 0 48 58" width="512" xmlns="http://www.w3.org/2000/svg"><g id="Page-1" fill="none" fill-rule="evenodd"><g id="014---Bookmark" fill-rule="nonzero"><rect id="Rectangle-path" fill="#35495e" height="58" rx="4" width="48"/><path id="Shape" d="m42 55h-5c-.5522847 0-1-.4477153-1-1s.4477153-1 1-1h5c.5522847 0 1-.4477153 1-1v-4c0-.5522847.4477153-1 1-1s1 .4477153 1 1v4c0 1.6568542-1.3431458 3-3 3z" fill="#547580"/><path id="Shape" d="m42 0v20c0 .3787721-.2140024.7250352-.5527864.8944272s-.744196.132836-1.0472136-.0944272l-5.8-4.35c-.3555556-.2666667-.8444444-.2666667-1.2 0l-5.8 4.35c-.3030176.2272632-.7084296.2638192-1.0472136.0944272s-.5527864-.5156551-.5527864-.8944272v-20z" fill="#f29c1f"/><path id="Shape" d="m33 55h-5c-.5522847 0-1-.4477153-1-1s.4477153-1 1-1h5c.5522847 0 1 .4477153 1 1s-.4477153 1-1 1z" fill="#547580"/><path id="Rectangle-path" d="m7 0h4v58h-4z" fill="#c03a2b"/></g></g></svg>