<?xml version="1.0" encoding="iso-8859-1"?>
<!-- Generator: Adobe Illustrator 19.0.0, SVG Export Plug-In . SVG Version: 6.00 Build 0)  -->
<svg version="1.1" id="Capa_1" xmlns="http://www.w3.org/2000/svg" xmlns:xlink="http://www.w3.org/1999/xlink" x="0px" y="0px"
	 viewBox="0 0 512 512" style="enable-background:new 0 0 512 512;" xml:space="preserve">
<path style="fill:#F6B545;" d="M314.076,418.909H81.349c-6.982,0-11.636-4.655-11.636-11.636V384
	c0-6.982,4.655-11.636,11.636-11.636h232.727c6.982,0,11.636,4.655,11.636,11.636v23.273
	C325.713,414.255,321.058,418.909,314.076,418.909z"/>
<path style="fill:#FFCB5B;" d="M267.531,384H69.713l0,0c0-6.982,4.655-11.636,11.636-11.636h186.182V384z"/>
<g>
	<path style="fill:#F19920;" d="M267.531,384v11.636c0,6.982-4.655,11.636-11.636,11.636H69.713c0,6.982,4.655,11.636,11.636,11.636
		h174.545h58.182c6.982,0,11.636-4.655,11.636-11.636V384H267.531z"/>
	<path style="fill:#F19920;" d="M104.622,407.273v-17.455c0-3.491-2.327-5.818-5.818-5.818s-5.818,2.327-5.818,5.818v17.455"/>
	<path style="fill:#F19920;" d="M139.531,407.273v-17.455c0-3.491-2.327-5.818-5.818-5.818c-3.491,0-5.818,2.327-5.818,5.818v17.455
		"/>
	<path style="fill:#F19920;" d="M174.44,407.273v-17.455c0-3.491-2.327-5.818-5.818-5.818s-5.818,2.327-5.818,5.818v17.455"/>
	<path style="fill:#F19920;" d="M209.349,407.273v-17.455c0-3.491-2.327-5.818-5.818-5.818c-3.491,0-5.818,2.327-5.818,5.818v17.455
		"/>
	<path style="fill:#F19920;" d="M244.258,407.273v-17.455c0-3.491-2.327-5.818-5.818-5.818c-3.491,0-5.818,2.327-5.818,5.818v17.455
		"/>
</g>
<path style="fill:#F6B545;" d="M325.713,372.364H92.985c-6.982,0-11.636-4.655-11.636-11.636v-23.273
	c0-6.982,4.655-11.636,11.636-11.636h232.727c6.982,0,11.636,4.655,11.636,11.636v23.273
	C337.349,367.709,332.694,372.364,325.713,372.364z"/>
<path style="fill:#FFCB5B;" d="M279.167,337.455H81.349l0,0c0-6.982,4.655-11.636,11.636-11.636h186.182V337.455z"/>
<g>
	<path style="fill:#F19920;" d="M279.167,337.455v11.636c0,6.982-4.655,11.636-11.636,11.636H81.349
		c0,6.982,4.655,11.636,11.636,11.636h174.545h58.182c6.982,0,11.636-4.655,11.636-11.636v-23.273H279.167z"/>
	<path style="fill:#F19920;" d="M116.258,360.727v-17.455c0-3.491-2.327-5.818-5.818-5.818c-3.491,0-5.818,2.327-5.818,5.818v17.455
		"/>
	<path style="fill:#F19920;" d="M151.167,360.727v-17.455c0-3.491-2.327-5.818-5.818-5.818c-3.491,0-5.818,2.327-5.818,5.818v17.455
		"/>
	<path style="fill:#F19920;" d="M186.076,360.727v-17.455c0-3.491-2.327-5.818-5.818-5.818c-3.491,0-5.818,2.327-5.818,5.818v17.455
		"/>
	<path style="fill:#F19920;" d="M220.985,360.727v-17.455c0-3.491-2.327-5.818-5.818-5.818s-5.818,2.327-5.818,5.818v17.455"/>
	<path style="fill:#F19920;" d="M255.894,360.727v-17.455c0-3.491-2.327-5.818-5.818-5.818c-3.491,0-5.818,2.327-5.818,5.818v17.455
		"/>
</g>
<path style="fill:#F6B545;" d="M337.349,465.455H104.622c-6.982,0-11.636-4.655-11.636-11.636v-23.273
	c0-6.982,4.655-11.636,11.636-11.636h232.727c6.982,0,11.636,4.655,11.636,11.636v23.273
	C348.985,460.8,344.331,465.455,337.349,465.455z"/>
<path style="fill:#FFCB5B;" d="M290.803,430.545H92.985l0,0c0-6.982,4.655-11.636,11.636-11.636h186.182V430.545z"/>
<g>
	<path style="fill:#F19920;" d="M290.803,430.545v11.636c0,6.982-4.655,11.636-11.636,11.636H92.985
		c0,6.982,4.655,11.636,11.636,11.636h174.545h58.182c6.982,0,11.636-4.655,11.636-11.636v-23.273H290.803z"/>
	<path style="fill:#F19920;" d="M127.894,453.818v-17.455c0-3.491-2.327-5.818-5.818-5.818s-5.818,2.327-5.818,5.818v17.455"/>
	<path style="fill:#F19920;" d="M162.803,453.818v-17.455c0-3.491-2.327-5.818-5.818-5.818c-3.491,0-5.818,2.327-5.818,5.818v17.455
		"/>
	<path style="fill:#F19920;" d="M197.713,453.818v-17.455c0-3.491-2.327-5.818-5.818-5.818c-3.491,0-5.818,2.327-5.818,5.818v17.455
		"/>
	<path style="fill:#F19920;" d="M232.622,453.818v-17.455c0-3.491-2.327-5.818-5.818-5.818c-3.491,0-5.818,2.327-5.818,5.818v17.455
		"/>
	<path style="fill:#F19920;" d="M267.531,453.818v-17.455c0-3.491-2.327-5.818-5.818-5.818c-3.491,0-5.818,2.327-5.818,5.818v17.455
		"/>
</g>
<path style="fill:#F6B545;" d="M290.803,512H58.076c-6.982,0-11.636-4.655-11.636-11.636v-23.273
	c0-6.982,4.655-11.636,11.636-11.636h232.727c6.982,0,11.636,4.655,11.636,11.636v23.273C302.44,507.345,297.785,512,290.803,512z"
	/>
<path style="fill:#FFCB5B;" d="M244.258,477.091H46.44l0,0c0-6.982,4.655-11.636,11.636-11.636h186.182V477.091z"/>
<g>
	<path style="fill:#F19920;" d="M244.258,477.091v11.636c0,6.982-4.655,11.636-11.636,11.636H46.44
		c0,6.982,4.655,11.636,11.636,11.636h174.545h58.182c6.982,0,11.636-4.655,11.636-11.636v-23.273H244.258z"/>
	<path style="fill:#F19920;" d="M81.349,500.364v-17.455c0-3.491-2.327-5.818-5.818-5.818s-5.818,2.327-5.818,5.818v17.455"/>
	<path style="fill:#F19920;" d="M116.258,500.364v-17.455c0-3.491-2.327-5.818-5.818-5.818c-3.491,0-5.818,2.327-5.818,5.818v17.455
		"/>
	<path style="fill:#F19920;" d="M151.167,500.364v-17.455c0-3.491-2.327-5.818-5.818-5.818c-3.491,0-5.818,2.327-5.818,5.818v17.455
		"/>
	<path style="fill:#F19920;" d="M186.076,500.364v-17.455c0-3.491-2.327-5.818-5.818-5.818c-3.491,0-5.818,2.327-5.818,5.818v17.455
		"/>
	<path style="fill:#F19920;" d="M220.985,500.364v-17.455c0-3.491-2.327-5.818-5.818-5.818s-5.818,2.327-5.818,5.818v17.455"/>
</g>
<path style="fill:#3BB54A;" d="M389.713,308.364c13.964-13.964,18.618-32.582,17.455-52.364c-19.782-2.327-38.4,3.491-52.364,17.455
	c-13.964,13.964-18.618,32.582-17.455,52.364C357.131,326.982,375.749,321.164,389.713,308.364z"/>
<path style="fill:#24A049;" d="M393.203,269.964c5.818-5.818,0-15.127-6.982-12.8c-11.636,2.327-22.109,8.145-31.418,16.291
	c-13.964,13.964-18.618,32.582-17.455,52.364L393.203,269.964z"/>
<rect x="325.713" y="232.727" style="fill:#3BB54A;" width="23.273" height="139.636"/>
<path style="fill:#24A049;" d="M337.349,244.364h-11.636v23.273l0,0c6.982,0,11.636,4.655,11.636,11.636v93.091h11.636v-128H337.349
	z"/>
<rect x="267.531" y="488.727" style="fill:#A35425;" width="139.636" height="23.273"/>
<path style="fill:#3BB54A;" d="M284.985,331.636c-13.964-13.964-18.618-32.582-17.455-52.364c19.782-2.327,38.4,3.491,52.364,17.455
	c13.964,13.964,18.618,32.582,17.455,52.364C317.567,350.255,298.949,344.436,284.985,331.636z"/>
<path style="fill:#24A049;" d="M281.494,293.236c-5.818-5.818,0-15.127,6.982-12.8c11.636,2.327,22.109,8.145,31.418,16.291
	c13.964,13.964,18.618,32.582,17.455,52.364L281.494,293.236z"/>
<circle style="fill:#FFCB5B;" cx="337.349" cy="128" r="128"/>
<circle style="fill:#F6B545;" cx="337.349" cy="128" r="104.727"/>
<g>
	<path style="fill:#F19920;" d="M243.094,136.145c0-58.182,46.545-104.727,104.727-104.727c23.273,0,45.382,8.145,62.836,20.945
		c-18.618-17.455-44.218-29.091-73.309-29.091c-58.182,0-104.727,46.545-104.727,104.727c0,33.745,16.291,64,41.891,83.782
		C254.731,192,243.094,166.4,243.094,136.145z"/>
	<circle style="fill:#F19920;" cx="343.167" cy="133.818" r="81.455"/>
</g>
<circle style="fill:#FFCB5B;" cx="337.349" cy="128" r="81.455"/>
<path style="fill:#FFE27A;" d="M395.531,172.218c-1.164,0-2.327,0-3.491-1.164c-2.327-2.327-3.491-5.818-1.164-8.145
	c6.982-10.473,10.473-23.273,10.473-34.909c0-3.491,2.327-5.818,5.818-5.818c3.491,0,5.818,2.327,5.818,5.818
	c0,15.127-4.655,29.091-12.8,41.891C399.022,171.055,397.858,172.218,395.531,172.218z"/>
<path style="fill:#F19920;" d="M348.985,116.364h-23.273c-6.982,0-11.636-4.655-11.636-11.636c0-6.982,4.655-11.636,11.636-11.636
	h34.909c6.982,0,11.636-4.655,11.636-11.636c0-6.982-4.655-11.636-11.636-11.636h-11.636c0-6.982-4.655-11.636-11.636-11.636
	s-11.636,4.655-11.636,11.636c-19.782,0-34.909,15.127-34.909,34.909s15.127,34.909,34.909,34.909h23.273
	c6.982,0,11.636,4.655,11.636,11.636c0,6.982-4.655,11.636-11.636,11.636h-34.909c-6.982,0-11.636,4.655-11.636,11.636
	c0,6.982,4.655,11.636,11.636,11.636h11.636c0,6.982,4.655,11.636,11.636,11.636s11.636-4.655,11.636-11.636
	c19.782,0,34.909-15.127,34.909-34.909S368.767,116.364,348.985,116.364z"/>
<path style="fill:#F6B545;" d="M460.694,93.091c0,0-1.164,0-2.327,0c-4.655,1.164-8.145,5.818-6.982,10.473
	c1.164,8.145,2.327,16.291,2.327,24.436c0,64-52.364,116.364-116.364,116.364c-8.145,0-16.291-1.164-24.436-2.327
	c-4.655-1.164-10.473,2.327-10.473,8.145l0,0v1.164c24.436,6.982,51.2,6.982,80.291-3.491c33.745-12.8,61.673-40.727,74.473-74.473
	C467.676,144.291,467.676,117.527,460.694,93.091z"/>
<path style="fill:#FFE27A;" d="M337.349,0L337.349,0c-70.982,0-128,57.018-128,128l0,0c5.818,0,11.636-4.655,11.636-11.636
	c2.327-25.6,12.8-47.709,29.091-65.164c18.618-22.109,45.382-36.073,75.636-39.564C332.694,11.636,337.349,5.818,337.349,0z"/>
<path style="fill:#8D4928;" d="M267.531,488.727c0,6.982,4.655,11.636,11.636,11.636h81.455c6.982,0,11.636,4.655,11.636,11.636
	h34.909v-23.273H267.531z"/>
<path style="fill:#B06328;" d="M414.149,488.727h-153.6c-3.491,0-5.818-2.327-6.982-4.655l0,0
	c-13.964-34.909-20.945-73.309-20.945-110.545v-1.164h209.455v1.164c0,38.4-6.982,75.636-20.945,110.545l0,0
	C419.967,486.4,416.476,488.727,414.149,488.727z"/>
<g>
	<path style="fill:#A35425;" d="M383.894,372.364C383.894,372.364,385.058,372.364,383.894,372.364c1.164,4.655,0,8.145,0,11.636
		H232.622c0,3.491,0,8.145,1.164,11.636h138.473c6.982,0,11.636,5.818,11.636,12.8c-1.164,17.455-3.491,34.909-8.145,51.2
		c-2.327,10.473-11.636,17.455-22.109,17.455H252.403c1.164,2.327,1.164,4.655,2.327,6.982c1.164,2.327,3.491,4.655,6.982,4.655
		h98.909h46.545h6.982c3.491,0,5.818-2.327,6.982-4.655c13.964-34.909,20.945-73.309,20.945-110.545v-1.164H383.894z"/>
	<path style="fill:#A35425;" d="M442.076,384H232.622c-6.982,0-11.636-4.655-11.636-11.636l0,0c0-6.982,4.655-11.636,11.636-11.636
		h209.455c6.982,0,11.636,4.655,11.636,11.636l0,0C453.713,379.345,449.058,384,442.076,384z"/>
</g>
<path style="fill:#8D4928;" d="M442.076,360.727L442.076,360.727c0,6.982-4.655,11.636-11.636,11.636H220.985
	c0,6.982,4.655,11.636,11.636,11.636h208.291c5.818,0,11.636-3.491,11.636-9.309C454.876,366.545,449.058,360.727,442.076,360.727z"
	/>
<path style="fill:#B06328;" d="M250.076,360.727h58.182c3.491,0,5.818,2.327,5.818,5.818l0,0c0,3.491-2.327,5.818-5.818,5.818
	h-58.182c-3.491,0-5.818-2.327-5.818-5.818l0,0C244.258,363.055,246.585,360.727,250.076,360.727z"/>
<g>
</g>
<g>
</g>
<g>
</g>
<g>
</g>
<g>
</g>
<g>
</g>
<g>
</g>
<g>
</g>
<g>
</g>
<g>
</g>
<g>
</g>
<g>
</g>
<g>
</g>
<g>
</g>
<g>
</g>
</svg>
