<svg height="512" viewBox="0 0 512 512" width="512" xmlns="http://www.w3.org/2000/svg"><g id="Flat"><path d="m240 296h32v32h-32z" fill="#fa9f0c"/><path d="m264 392a53.263 53.263 0 0 0 10.67 32h-216a53.334 53.334 0 0 1 0-64h216a53.369 53.369 0 0 0 -10.67 32z" fill="#92563a"/><path d="m432 360h-157.334a53.334 53.334 0 0 0 0 64h157.334a53.334 53.334 0 0 1 0-64z" fill="#ead7bc"/><rect fill="#d4c2aa" height="16" rx="8" width="160" x="264" y="384"/><path d="m219.163 360.372a8 8 0 0 0 -11.85 2.6 61.842 61.842 0 0 0 0 58.05 8 8 0 0 0 11.85 2.6 8.023 8.023 0 0 0 2.22-10.219 45.705 45.705 0 0 1 0-42.818 8.023 8.023 0 0 0 -2.22-10.213z" fill="#ed8c0c"/><path d="m95.313 362.975a61.842 61.842 0 0 0 0 58.05 8 8 0 0 0 11.85 2.6 8.023 8.023 0 0 0 2.22-10.219 45.705 45.705 0 0 1 0-42.818 8.023 8.023 0 0 0 -2.22-10.219 8 8 0 0 0 -11.85 2.606z" fill="#ed8c0c"/><path d="m208 328h96a32 32 0 0 1 32 32 0 0 0 0 1 0 0h-160a0 0 0 0 1 0 0 32 32 0 0 1 32-32z" fill="#ffb531"/><path d="m304 328h-40a32 32 0 0 1 32 32h40a32 32 0 0 0 -32-32z" fill="#ffa912"/><path d="m240-37.019h16v362.039h-16z" fill="#fa9f0c" transform="matrix(.707 -.707 .707 .707 -29.186 217.539)"/><path d="m248 303.925a159.505 159.505 0 0 1 -113.138-46.788c-62.383-62.384-62.383-163.89 0-226.274a161.691 161.691 0 0 1 20.5-17.346l9.278 13.036a145.481 145.481 0 0 0 -18.463 15.624c-56.145 56.145-56.145 147.5 0 203.647s147.5 56.144 203.646 0a145.606 145.606 0 0 0 15.624-18.462l13.035 9.277a161.615 161.615 0 0 1 -17.344 20.5 159.505 159.505 0 0 1 -113.138 46.786z" fill="#ffb531"/><path d="m368 144a120.889 120.889 0 0 1 -2.4 24 119.568 119.568 0 0 1 -27.28 55 120.946 120.946 0 0 1 -11.32 11.32 119.954 119.954 0 0 1 -199-90.32 120.889 120.889 0 0 1 2.4-24 119.568 119.568 0 0 1 27.28-55 120.462 120.462 0 0 1 42.32-31.01 120.007 120.007 0 0 1 168 110.01z" fill="#348fd9"/><path d="m368 144a120.889 120.889 0 0 1 -2.4 24 119.568 119.568 0 0 1 -27.28 55 120.946 120.946 0 0 1 -11.32 11.32 120.014 120.014 0 0 1 -194.84-58.91 119.738 119.738 0 0 0 62.14 17.27q5.64 0 11.14-.52a119.34 119.34 0 0 0 50.56-16.48 120.475 120.475 0 0 0 54.68-134.03 119.929 119.929 0 0 1 57.32 102.35z" fill="#3086cd"/><g fill="#7eb457"><path d="m280 192-32 40h-32v-24l-10.56-15.84-5.44-8.16v-32h56v40z"/><path d="m248 104h-32l-16 24v24h-32l-8-32h-29.6a119.568 119.568 0 0 1 27.28-55 120.462 120.462 0 0 1 42.32-31.01v38.01h32z"/><path d="m368 144a120.889 120.889 0 0 1 -2.4 24h-29.6l-24-16v-32l-4.33-7.22-19.67-32.78v-49.17a120.081 120.081 0 0 1 80 113.17z"/></g><path d="m256 192h24l-32 40h-32v-24l-10.56-15.84a119.34 119.34 0 0 0 50.56-16.48z" fill="#79ad54"/><path d="m368 144a120.889 120.889 0 0 1 -2.4 24h-29.6l-24-16v-32l-4.33-7.22a120.845 120.845 0 0 0 3.01-71.13 119.929 119.929 0 0 1 57.32 102.35z" fill="#79ad54"/><path d="m298.833 456.065a53.263 53.263 0 0 0 10.67 32h-216.003a53.334 53.334 0 0 1 0-64h216a53.369 53.369 0 0 0 -10.67 32z" fill="#92563a"/><path d="m309.5 424.065a53.071 53.071 0 0 0 -8.21 16h-216a53.071 53.071 0 0 1 8.21-16z" fill="#875036"/><path d="m466.833 424.065h-157.333a53.334 53.334 0 0 0 0 64h157.333a53.334 53.334 0 0 1 0-64z" fill="#dfcdb3"/><rect fill="#cebda5" height="16" rx="8" width="160" x="298.833" y="448.065"/><path d="m254 424.437a8 8 0 0 0 -11.85 2.6 61.842 61.842 0 0 0 0 58.05 8 8 0 0 0 11.85 2.6 8.022 8.022 0 0 0 2.22-10.218 45.707 45.707 0 0 1 0-42.819 8.023 8.023 0 0 0 -2.22-10.213z" fill="#ed8c0c"/><path d="m130.146 427.04a61.842 61.842 0 0 0 0 58.05 8 8 0 0 0 11.85 2.6 8.022 8.022 0 0 0 2.22-10.218 45.707 45.707 0 0 1 0-42.819 8.023 8.023 0 0 0 -2.216-10.216 8 8 0 0 0 -11.854 2.603z" fill="#ed8c0c"/></g></svg>