<svg height="468pt" viewBox="0 -5 468.55165 468" width="468pt" xmlns="http://www.w3.org/2000/svg"><path d="m409.28125 282.203125-30.480469-80h-80l30.480469 80zm0 0" fill="#58595b"/><path d="m409.28125 282.203125h-405.679688v144c0 17.675781 14.324219 32 32 32h400c17.671876 0 32-14.324219 32-32v-144zm0 0" fill="#6d6e71"/><path d="m27.601562 282.203125h416v16h-416zm0 0" fill="#4f5052"/><path d="m56.960938 202.203125h-53.359376v80h83.839844zm0 0" fill="#58595b"/><path d="m467.601562 202.203125h-88.800781l30.480469 80h58.320312zm0 0" fill="#ffcd00"/><path d="m169.28125 282.203125-30.480469-80h-81.839843l30.480468 80zm0 0" fill="#ffcd00"/><path d="m249.28125 282.203125-30.480469-80h-80l30.480469 80zm0 0" fill="#58595b"/><path d="m329.28125 282.203125-30.480469-80h-80l30.480469 80zm0 0" fill="#ffcd00"/><path d="m468.550781 89.628906-11.109375-63.023437c-2.765625-15.515625-16.4375-26.6953128-32.195312-26.320313l-39.550782 104zm0 0" fill="#ffcd00"/><path d="m79.414062 60.765625-52.972656 9.34375c-17.40625 3.070313-29.023437 19.667969-25.953125 37.070313l11.113281 63.023437 28.652344-5.054687zm0 0" fill="#58595b"/><path d="m79.441406 60.765625-1.683594 4.558594-27.277343 4.800781c-17.410157 3.046875-29.050781 19.632812-26 37.039062l10.398437 58.960938-23.277344 4.078125-11.121093-63.039063c-3.050781-17.40625 8.589843-33.992187 26-37.039062zm0 0" fill="#4f5052"/><path d="m79.414062 60.765625-39.160156 104.382813 88.160156-15.542969 38.777344-104.320313zm0 0" fill="#ffcd00"/><path d="m167.191406 45.285156-38.777344 104.320313 85.761719-15.121094 38.777344-104.320313zm0 0" fill="#58595b"/><path d="m420.398438.644531-80.09375 14.121094-40.367188 104.597656 85.757812-15.117187 39.550782-103.960938c-1.621094-.003906-3.242188.113282-4.847656.359375zm0 0" fill="#58595b"/><path d="m252.953125 30.164062-38.777344 104.320313 85.761719-15.121094 40.367188-104.597656zm0 0" fill="#ffcd00"/><path d="m59.601562 458.203125h-24c-17.675781 0-32-14.324219-32-32v-144h24v144c0 17.675781 14.324219 32 32 32zm0 0" fill="#5f6063"/><path d="m3.601562 202.203125h24v80h-24zm0 0" fill="#4d4e50"/></svg>