<svg id="Layer_1" enable-background="new 0 0 512.345 512.345" height="512" viewBox="0 0 512.345 512.345" width="512" xmlns="http://www.w3.org/2000/svg"><g><g><path d="m309.172 378.062c-8.284 0-15-6.716-15-15v-283.717c0-8.284 6.716-15 15-15s15 6.716 15 15v283.716c0 8.285-6.716 15.001-15 15.001z" fill="#4793ff"/></g><g><g><path d="m497.172 172.618c-2.166 0-4.339-.469-6.362-1.417-66.332-31.076-108.923-31.076-175.274 0-4.647 2.177-10.082 1.826-14.411-.926-4.329-2.753-6.951-7.527-6.951-12.658v-117.43c0-5.816 3.362-11.109 8.629-13.58 74.052-34.745 126.58-34.746 200.735-.003 5.27 2.469 8.636 7.763 8.636 13.583v117.431c0 5.13-2.622 9.905-6.952 12.658-2.445 1.554-5.242 2.342-8.05 2.342z" fill="#525cdd"/></g></g><g><path d="m70.368 243.301c-16.699 0-37.531-20.823-43.519-27.204-9.963-10.62-26.677-31.652-26.677-53.191 0-24.295 19.766-44.06 44.061-44.06 9.659 0 18.734 3.068 26.136 8.523 7.401-5.456 16.476-8.523 26.135-8.523 24.295 0 44.06 19.765 44.06 44.06 0 23.224-16.809 44.093-26.828 54.465-4.182 4.33-25.93 25.93-43.368 25.93z" fill="#fe7cb8"/></g><g><path d="m195.963 105.508c-14.123 0-30.485-15.815-36.864-22.615-8.238-8.781-22.058-26.229-22.058-44.423 0-21.021 17.103-38.124 38.125-38.124 7.583 0 14.75 2.186 20.797 6.116 6.047-3.931 13.214-6.116 20.797-6.116 21.022 0 38.125 17.103 38.125 38.124 0 19.558-13.914 36.883-22.208 45.469-4.888 5.061-21.98 21.569-36.714 21.569zm1.79-29.795s0 0 0 0z" fill="#f9bbde"/></g><g><path d="m195.963 512.345c-22.226 0-55.822-27.404-77.838-50.872-18.861-20.104-50.502-59.623-50.502-98.412 0-41.175 33.498-74.673 74.673-74.673 20.724 0 39.86 8.334 53.667 22.66 13.807-14.326 32.943-22.66 53.667-22.66 41.175 0 74.674 33.499 74.674 74.673 0 42.133-31.735 81.278-50.652 100.863-23.282 24.102-56.333 48.421-77.689 48.421z" fill="#ff415b"/></g><path d="m218.937.034c-7.577-.313-14.828 1.575-21.032 5.253l-4.087 98.962c14.722.608 32.48-15.181 37.573-20.035 8.641-8.237 23.258-24.973 24.065-44.514.868-21.005-15.515-38.799-36.519-39.666z" fill="#fe7cb8"/><path d="m249.63 288.388c-20.724 0-39.86 8.334-53.667 22.66v201.297c21.356 0 54.407-24.319 77.688-48.421 18.917-19.584 50.652-58.729 50.652-100.863 0-41.174-33.499-74.673-74.673-74.673z" fill="#e50058"/></g></svg>