<svg id="color" enable-background="new 0 0 24 24" height="512" viewBox="0 0 24 24" width="512" xmlns="http://www.w3.org/2000/svg"><path d="m20.842 6.347c-1.937-3.035-5.242-4.847-8.842-4.847s-6.905 1.812-8.842 4.847c-.077.12-.118.26-.118.403v10.5c0 .143.041.283.118.403 1.937 3.035 5.242 4.847 8.842 4.847s6.905-1.812 8.842-4.847c.077-.12.118-.26.118-.403v-10.5c0-.143-.041-.283-.118-.403z" fill="#ffc107"/><path d="m21.25 6h-18.5c-1.517 0-2.75 1.233-2.75 2.75v6.5c0 1.517 1.233 2.75 2.75 2.75h18.5c1.517 0 2.75-1.233 2.75-2.75v-6.5c0-1.517-1.233-2.75-2.75-2.75z" fill="#2196f3"/><g fill="#fff"><path d="m4.5 14.5c-.284 0-.544-.161-.671-.415l-1.75-3.5c-.186-.371-.035-.821.336-1.006s.82-.035 1.006.335l1.079 2.159 1.079-2.158c.187-.37.637-.52 1.006-.335.371.186.521.636.336 1.006l-1.75 3.5c-.127.253-.387.414-.671.414z"/><path d="m10 14.5c-1.103 0-2-.897-2-2v-1c0-1.103.897-2 2-2s2 .897 2 2v1c0 1.103-.897 2-2 2zm0-3.5c-.275 0-.5.224-.5.5v1c0 .276.225.5.5.5s.5-.224.5-.5v-1c0-.276-.225-.5-.5-.5z"/><path d="m16.25 11h-2.5c-.414 0-.75-.336-.75-.75s.336-.75.75-.75h2.5c.414 0 .75.336.75.75s-.336.75-.75.75z"/><path d="m15 14.5c-.414 0-.75-.336-.75-.75v-3.5c0-.414.336-.75.75-.75s.75.336.75.75v3.5c0 .414-.336.75-.75.75z"/><path d="m20.25 14.5h-1.5c-.414 0-.75-.336-.75-.75v-3.5c0-.414.336-.75.75-.75h1.5c.414 0 .75.336.75.75s-.336.75-.75.75h-.75v2h.75c.414 0 .75.336.75.75s-.336.75-.75.75z"/><path d="m20.25 12.75h-1.5c-.414 0-.75-.336-.75-.75s.336-.75.75-.75h1.5c.414 0 .75.336.75.75s-.336.75-.75.75z"/></g></svg>