<svg height="512" viewBox="0 0 512 512" width="512" xmlns="http://www.w3.org/2000/svg"><g id="Flat"><path d="m96 440 88-104 33.362 25.021-49.362 78.979-48 24z" fill="#a1764a"/><path d="m280.593 368.652 47.407-8.652 48 96h-72z" fill="#a1764a"/><path d="m280.593 368.652 47.407 71.348-80 32h-32z" fill="#8c6231"/><path d="m168 440 80-128 48 32-80 128z" fill="#bc8d5d"/><path d="m208 376-21.24692-10.62346a82.48987 82.48987 0 0 1 -38.71525-40.79123v-.00006a52.81549 52.81549 0 0 1 6.17459-52.83713l.96238-1.28156a46.46379 46.46379 0 0 1 11.80942-11.04323q.3906-.25422.79249-.51588a21.84516 21.84516 0 0 0 7.64011-28.03593l-.24257-.48748a36.00845 36.00845 0 0 1 -1.16034-29.508c4.55379-11.29528 9.98609-24.87604 9.98609-24.87604l5.81128 29.0564a36.86008 36.86008 0 0 0 10.08026 18.83514 36.86 36.86 0 0 1 8.90452 37.72016l-.79606 2.3883 4.93624-4.92584a55.64914 55.64914 0 0 0 11.54445-61.9926l-.40219-.90493a57.43459 57.43459 0 0 1 11.79215-64.05327c3.30733-3.30545 6.51373-6.51057 9.35919-9.35514a57.3253 57.3253 0 0 0 14.77823-25.46447l19.99193-73.30375 6.94413 97.21784a19.08817 19.08817 0 0 1 -13.00345 19.4686 19.08817 19.08817 0 0 0 -12.482 13.47906l-2.83741 11.34964a19.08818 19.08818 0 0 0 5.02087 18.12693l.79532.79532a19.08817 19.08817 0 0 0 28.76791-2.04447l10.79463-14.39292a71.55414 71.55414 0 0 1 0 64l-8 16 23.0568-13.83408a67.85355 67.85355 0 0 0 25.77969-27.83892 67.8535 67.8535 0 0 0 7.16351-30.345v-1.26312a67.85383 67.85383 0 0 0 -1.31767-13.30718l-6.68233-33.4117 28.013 42.01946a69.03148 69.03148 0 0 1 6.65648 12.65416l.61359 1.534a69.03167 69.03167 0 0 1 -4.90013 61.15421 69.03175 69.03175 0 0 1 -16.07048 18.38817l-18.40872 14.727a20.54824 20.54824 0 0 0 -6.24217 23.67691l.9331 2.33277a20.54825 20.54825 0 0 0 30.47668 9.46575 20.54838 20.54838 0 0 0 5.04048-4.76822l21.88817-29.18421v30.05891a81.94105 81.94105 0 0 1 -24 57.94109 81.94105 81.94105 0 0 1 -57.94107 24h-14.05893l-15.4074-23.34816 15.4074-24.65184-48-32z" fill="#eb352f"/><path d="m312 336c-5.40991 21.64014-19.01 32.31006-34.09009 36.93994l18.09009-28.93994-48-32-27.05 43.28a39.84782 39.84782 0 0 1 -4.95-19.28c0-24.34009 8-40 24-56 15.75-15.75 8.24-47 8.01-47.98.5.66992 16.6499 22.26 23.99 31.98 10.4 16-8 32 8 40s24-16 24-16 16 16 8 48z" fill="#ff6f35"/><path d="m72 440h32a48 48 0 0 1 48 48 0 0 0 0 1 0 0h-128a0 0 0 0 1 0 0 48 48 0 0 1 48-48z" fill="#808080"/><path d="m408 440h32a48 48 0 0 1 48 48 0 0 0 0 1 0 0h-128a0 0 0 0 1 0 0 48 48 0 0 1 48-48z" fill="#808080"/><path d="m152 440h32a48 48 0 0 1 48 48 0 0 0 0 1 0 0h-128a0 0 0 0 1 0 0 48 48 0 0 1 48-48z" fill="#4d4d4d"/><path d="m328 440h32a48 48 0 0 1 48 48 0 0 0 0 1 0 0h-128a0 0 0 0 1 0 0 48 48 0 0 1 48-48z" fill="#4d4d4d"/><path d="m240 440h32a48 48 0 0 1 48 48 0 0 0 0 1 0 0h-128a0 0 0 0 1 0 0 48 48 0 0 1 48-48z" fill="#808080"/></g></svg>