<svg height="480pt" viewBox="0 0 480 480" width="480pt" xmlns="http://www.w3.org/2000/svg"><path d="m128 208h224v240h-224zm0 0" fill="#ddddd9"/><path d="m272 347.886719v60.113281h-64v-24.128906c-25.597656 9.707031-52.632812 15.089844-80 15.929687v48.199219h224v-208.3125c-16.210938 42.738281-43.890625 80.175781-80 108.199219zm0 0" fill="#c6c6c1"/><path d="m40 256h104v216h-104zm0 0" fill="#ddddd9"/><path d="m40 256h104v16h-104zm0 0" fill="#c6c6c1"/><path d="m128 208h224v16h-224zm0 0" fill="#c6c6c1"/><path d="m336 256h104v216h-104zm0 0" fill="#ddddd9"/><path d="m336 256h104v16h-104zm0 0" fill="#c6c6c1"/><path d="m40 423.601562v48.398438h96v-118.59375c-15.898438 39.867188-53.191406 67.132812-96 70.195312zm0 0" fill="#c6c6c1"/><path d="m344 423.601562v48.398438h96v-118.59375c-15.898438 39.867188-53.191406 67.132812-96 70.195312zm0 0" fill="#c6c6c1"/><path d="m320 264h152c-20.488281-20.488281-32-48.28125-32-77.257812v-66.742188c0 8.835938-7.164062 16-16 16h-104zm0 0" fill="#ff7b03"/><path d="m160 264h-152c20.488281-20.488281 32-48.28125 32-77.257812v-66.742188c0 8.835938 7.164062 16 16 16h104zm0 0" fill="#ff7b03"/><path d="m312 216h96c-15.367188-15.367188-24-36.210938-24-57.945312v-62.054688c0 8.835938-7.164062 16-16 16h-56zm0 0" fill="#e56107"/><path d="m376 72h16v24h-16zm0 0" fill="#ffc933"/><path d="m432 96h16v24h-16zm0 0" fill="#ffc933"/><path d="m168 216h-96c15.367188-15.367188 24-36.210938 24-57.945312v-62.054688c0 8.835938 7.164062 16 16 16h56zm0 0" fill="#e56107"/><path d="m88 72h16v24h-16zm0 0" fill="#ffc933"/><path d="m208 328c0-20.488281 8.136719-40.136719 22.625-54.625l9.375-9.375 9.375 9.375c14.488281 14.488281 22.625 34.136719 22.625 54.625v80h-64zm0 0" fill="#ffc933"/><path d="m136 216h32v224h-32zm0 0" fill="#fff"/><path d="m312 216h32v224h-32zm0 0" fill="#fff"/><path d="m168 408h144v40h-144zm0 0" fill="#7c7c7c"/><path d="m200 96h-40c-8.835938 0-16-7.164062-16-16v49.375c0 14.488281-5.753906 28.382812-16 38.625h24zm0 0" fill="#ff7b03"/><path d="m280 96h40c8.835938 0 16-7.164062 16-16v49.375c0 14.488281 5.753906 28.382812 16 38.625h-24zm0 0" fill="#ff7b03"/><path d="m328 56h16v24h-16zm0 0" fill="#ffc933"/><path d="m136 56h16v24h-16zm0 0" fill="#ffc933"/><path d="m232 240h16v24h-16zm0 0" fill="#eab328"/><path d="m72 392h32v-41.375c0-14.488281-5.753906-28.382812-16-38.625-10.246094 10.242188-16 24.136719-16 38.625zm0 0" fill="#ffc933"/><path d="m72 360h32v32h-32zm0 0" fill="#8c603e"/><path d="m80 288h16v24h-16zm0 0" fill="#eab328"/><path d="m384 288h16v24h-16zm0 0" fill="#eab328"/><path d="m112 216h256l-128-192zm0 0" fill="#ffc933"/><g fill="#a3724a"><path d="m200 144h80l-40-64zm0 0"/><path d="m200 168h16v24h-16zm0 0"/><path d="m232 168h16v24h-16zm0 0"/><path d="m264 168h16v24h-16zm0 0"/><path d="m168 168h16v24h-16zm0 0"/><path d="m296 168h16v24h-16zm0 0"/></g><path d="m32 96h16v24h-16zm0 0" fill="#ffc933"/><path d="m376 392h32v-41.375c0-14.488281-5.753906-28.382812-16-38.625-10.246094 10.242188-16 24.136719-16 38.625zm0 0" fill="#ffc933"/><path d="m376 360h32v32h-32zm0 0" fill="#8c603e"/><path d="m232 0h16v24h-16zm0 0" fill="#ffc933"/><path d="m136 440h208v32h-208zm0 0" fill="#666"/><path d="m208 328h64v80h-64zm0 0" fill="#a3724a"/><path d="m208 328h32v80h-32zm0 0" fill="#a3724a"/><path d="m240 408h32v-60.113281c-10.105469 7.867187-20.804688 14.941406-32 21.152343zm0 0" fill="#8c603e"/><path d="m208 383.871094v24.128906h32v-38.960938c-10.300781 5.703126-20.992188 10.660157-32 14.832032zm0 0" fill="#8c603e"/><path d="m236 328h8v80h-8zm0 0" fill="#754934"/><path d="m32 424h16v48h-16zm0 0" fill="#ffe183"/><path d="m64 424h16v48h-16zm0 0" fill="#ffe183"/><path d="m96 424h16v48h-16zm0 0" fill="#ffe183"/><path d="m32 472h16v-19.59375c-5.304688.761719-10.625 1.472656-16 2.007812zm0 0" fill="#eaca71"/><path d="m64 472h16v-25.535156c-5.296875 1.210937-10.628906 2.3125-16 3.304687zm0 0" fill="#eaca71"/><path d="m96 472h16v-34.222656c-5.28125 1.6875-10.625 3.199218-16 4.703125zm0 0" fill="#eaca71"/><path d="m136 480h-128c-4.417969 0-8-3.582031-8-8v-48c0-4.417969 3.582031-8 8-8h128c4.417969 0 8 3.582031 8 8v48c0 4.417969-3.582031 8-8 8zm-120-16h112v-32h-112zm0 0" fill="#ededeb"/><path d="m128 464h-112v-8.367188c-5.304688.320313-10.640625.480469-16 .574219v15.792969c0 4.417969 3.582031 8 8 8h128c4.417969 0 8-3.582031 8-8v-45.984375c-5.28125 2.21875-10.613281 4.324219-16 6.3125zm0 0" fill="#ddddd9"/><path d="m368 424h16v48h-16zm0 0" fill="#ffe183"/><path d="m400 424h16v48h-16zm0 0" fill="#ffe183"/><path d="m432 424h16v48h-16zm0 0" fill="#ffe183"/><path d="m368 472h16v-19.59375c-5.304688.761719-10.625 1.472656-16 2.007812zm0 0" fill="#eaca71"/><path d="m400 472h16v-25.535156c-5.296875 1.210937-10.628906 2.3125-16 3.304687zm0 0" fill="#eaca71"/><path d="m432 472h16v-34.222656c-5.28125 1.6875-10.625 3.199218-16 4.703125zm0 0" fill="#eaca71"/><path d="m472 480h-128c-4.417969 0-8-3.582031-8-8v-48c0-4.417969 3.582031-8 8-8h128c4.417969 0 8 3.582031 8 8v48c0 4.417969-3.582031 8-8 8zm-120-16h112v-32h-112zm0 0" fill="#ededeb"/><path d="m464 464h-112v-8.367188c-5.304688.320313-10.640625.480469-16 .574219v15.792969c0 4.417969 3.582031 8 8 8h128c4.417969 0 8-3.582031 8-8v-45.984375c-5.28125 2.21875-10.613281 4.324219-16 6.3125zm0 0" fill="#ddddd9"/></svg>