<svg height="512" viewBox="0 0 64 64" width="512" xmlns="http://www.w3.org/2000/svg" xmlns:xlink="http://www.w3.org/1999/xlink"><linearGradient id="linear-gradient" gradientUnits="userSpaceOnUse" x1="22.507" x2="22.507" y1="-8.511" y2="19.265"><stop offset="0" stop-color="#048ac4"/><stop offset="1" stop-color="#35489b"/></linearGradient><linearGradient id="linear-gradient-2" x1="32" x2="32" xlink:href="#linear-gradient" y1="-8.511" y2="19.265"/><linearGradient id="linear-gradient-3" x1="41.493" x2="41.493" xlink:href="#linear-gradient" y1="-8.511" y2="19.265"/><linearGradient id="linear-gradient-7" x1="22.507" x2="22.507" xlink:href="#linear-gradient" y1="71.178" y2="46.707"/><linearGradient id="linear-gradient-8" x1="32" x2="32" xlink:href="#linear-gradient" y1="71.178" y2="46.707"/><linearGradient id="linear-gradient-9" x1="41.493" x2="41.493" xlink:href="#linear-gradient" y1="71.178" y2="46.707"/><linearGradient id="linear-gradient-13" gradientUnits="userSpaceOnUse" x1="32" x2="32" y1="-18.764" y2="67.217"><stop offset="0" stop-color="#f3f7ff"/><stop offset="1" stop-color="#cdd9ff"/></linearGradient><linearGradient id="linear-gradient-14" x1="32" x2="32" xlink:href="#linear-gradient" y1="-15.269" y2="57.038"/><g id="Chipset"><path d="m22.507 13.99a1 1 0 0 1 -1-1v-5.99a1 1 0 0 1 2 0v6a1 1 0 0 1 -1 .99z" fill="url(#linear-gradient)"/><path d="m32 13.99a1 1 0 0 1 -1-1v-5.99a1 1 0 0 1 2 0v6a1 1 0 0 1 -1 .99z" fill="url(#linear-gradient-2)"/><path d="m41.493 13.99a1 1 0 0 1 -1-1v-5.99a1 1 0 0 1 2 0v6a1 1 0 0 1 -1 .99z" fill="url(#linear-gradient-3)"/><circle cx="22.507" cy="3.997" fill="url(#linear-gradient)" r="3.997"/><circle cx="32" cy="3.997" fill="url(#linear-gradient-2)" r="3.997"/><circle cx="41.493" cy="3.997" fill="url(#linear-gradient-3)" r="3.997"/><path d="m22.507 58a1 1 0 0 1 -1-1v-6a1 1 0 0 1 2 0v6a1 1 0 0 1 -1 1z" fill="url(#linear-gradient-7)"/><path d="m32 58a1 1 0 0 1 -1-1v-6a1 1 0 0 1 2 0v6a1 1 0 0 1 -1 1z" fill="url(#linear-gradient-8)"/><path d="m41.493 58a1 1 0 0 1 -1-1v-6a1 1 0 0 1 2 0v6a1 1 0 0 1 -1 1z" fill="url(#linear-gradient-9)"/><circle cx="22.507" cy="60.003" fill="url(#linear-gradient-7)" r="3.997"/><circle cx="32" cy="60.003" fill="url(#linear-gradient-8)" r="3.997"/><circle cx="41.493" cy="60.003" fill="url(#linear-gradient-9)" r="3.997"/><path d="m50.987 29.979a1 1 0 0 0 1-1v-13.989a3 3 0 0 0 -3-3h-33.975a3 3 0 0 0 -3 3v13.99a1 1 0 0 0 1 1 2 2 0 0 1 0 4 1 1 0 0 0 -1 1v13.99a3 3 0 0 0 3 3h33.976a3 3 0 0 0 3-3v-13.994a1 1 0 0 0 -1-1 2 2 0 0 1 0-4z" fill="url(#linear-gradient-13)"/><rect fill="url(#linear-gradient-14)" height="21.985" rx="2.998" width="21.985" x="21.008" y="20.986"/></g></svg>